# xmcd
#
# Track frame offsets:
#	150
#	18761
#	34402
#	47815
#	82589
#	116766
#	137539
#	157617
#	180693
#	197508
#	209140
#	222025
#	235141
#	253591
#	265893
#
# Disc length: 3574 seconds
# Revision: 2
# Processed by: cddbd v1.5.2PL0 Copyright (c) Steve Scherf et al.
# Submitted via: dBpowerAMP V12.0
#
DISCID=c40df40f
DTITLE=Billy Strings - Home
DYEAR=2019
DGENRE=Bluegrass
TTITLE0=Taking Water
TTITLE1=Must Be Seven
TTITLE2=Running
TTITLE3=Away From The Mire
TTITLE4=Home
TTITLE5=Watch It Fall
TTITLE6=Long Forgotten Dream
TTITLE7=Highway Hypnosis
TTITLE8=Enough To Leave
TTITLE9=Hollow Heart
TTITLE10=Love Like Me
TTITLE11=Everything's The Same
TTITLE12=Guitar Peace
TTITLE13=Freedom
TTITLE14=[Hidden Track]
EXTD=
EXTT0=
EXTT1=
EXTT2=
EXTT3=
EXTT4=
EXTT5=
EXTT6=
EXTT7=
EXTT8=
EXTT9=
EXTT10=
EXTT11=
EXTT12=
EXTT13=
EXTT14=
PLAYORDER=
